# xmcd
#
# Track frame offsets: 
#        150
#        23837
#        43957
#        56612
#        75997
#        93412
#        113435
#        127795
#        147897
#        166702
#
# Disc length: 2378 seconds
#
# Revision: 0
# Processed by: cddbd v1.4PL0 Copyright (c) Steve Scherf et al.
# Submitted via: ExactAudioCopy v0.90b4
#
DISCID=6f09480a
DTITLE=Milva - Tausendundeine Nacht
DYEAR=1995
DGENRE=Acoustic
TTITLE0=01 Tausendundeine Nacht
TTITLE1=Flauten Und Stürme
TTITLE2=Du Nennst Es Liebe
TTITLE3=Anna, Nicht Weinen
TTITLE4=Frühlingserwachen
TTITLE5=Wärstdu Doch Hier
TTITLE6=Du Musst Verliebt Sein
TTITLE7=Sag Ihr Die Wahrheit
TTITLE8=Du Kennst Dich Aus
TTITLE9=Der Journalist
EXTD=
EXTT0=
EXTT1=
EXTT2=
EXTT3=
EXTT4=
EXTT5=
EXTT6=
EXTT7=
EXTT8=
EXTT9=
PLAYORDER=
